G04 PROTEUS RS274X GERBER FILE*
%FSLAX45Y45*%
%MOMM*%
G01*
%ADD34C,0.203200*%
%ADD99C,0.127000*%
%ADD102C,0.063500*%
D34*
X-2280000Y+1713500D02*
X-2280000Y+1586500D01*
X-2343500Y+1650000D02*
X-2216500Y+1650000D01*
X-1080000Y+1713500D02*
X-1080000Y+1586500D01*
X-1143500Y+1650000D02*
X-1016500Y+1650000D01*
X+135300Y-2455018D02*
X+135300Y-2582018D01*
X+71800Y-2518518D02*
X+198800Y-2518518D01*
X-2785700Y+2164352D02*
X-2785700Y+2037352D01*
X-2849200Y+2100852D02*
X-2722200Y+2100852D01*
X-2160000Y+2293500D02*
X-2160000Y+2166500D01*
X-2223500Y+2230000D02*
X-2096500Y+2230000D01*
X-1220000Y+2473500D02*
X-1220000Y+2346500D01*
X-1283500Y+2410000D02*
X-1156500Y+2410000D01*
X-940000Y+2373500D02*
X-940000Y+2246500D01*
X-1003500Y+2310000D02*
X-876500Y+2310000D01*
X-2785700Y+2604292D02*
X-2785700Y+2477292D01*
X-2849200Y+2540792D02*
X-2722200Y+2540792D01*
X-1880000Y+2733500D02*
X-1880000Y+2606500D01*
X-1943500Y+2670000D02*
X-1816500Y+2670000D01*
X-490000Y+1583500D02*
X-490000Y+1456500D01*
X-553500Y+1520000D02*
X-426500Y+1520000D01*
X+1330000Y+2973500D02*
X+1330000Y+2846500D01*
X+1266500Y+2910000D02*
X+1393500Y+2910000D01*
X+1960000Y+1323500D02*
X+1960000Y+1196500D01*
X+1896500Y+1260000D02*
X+2023500Y+1260000D01*
X+1900000Y+2983500D02*
X+1900000Y+2856500D01*
X+1836500Y+2920000D02*
X+1963500Y+2920000D01*
X+2310000Y+43500D02*
X+2310000Y-83500D01*
X+2246500Y-20000D02*
X+2373500Y-20000D01*
X+2900000Y+43500D02*
X+2900000Y-83500D01*
X+2836500Y-20000D02*
X+2963500Y-20000D01*
X+1330000Y+1153500D02*
X+1330000Y+1026500D01*
X+1266500Y+1090000D02*
X+1393500Y+1090000D01*
X-2010000Y+2473850D02*
X-2010000Y+2346850D01*
X-2073500Y+2410350D02*
X-1946500Y+2410350D01*
X+1210000Y+1223500D02*
X+1210000Y+1096500D01*
X+1146500Y+1160000D02*
X+1273500Y+1160000D01*
X-1600000Y+2703500D02*
X-1600000Y+2576500D01*
X-1663500Y+2640000D02*
X-1536500Y+2640000D01*
X+1080000Y+1283500D02*
X+1080000Y+1156500D01*
X+1016500Y+1220000D02*
X+1143500Y+1220000D01*
X-1720000Y+2873500D02*
X-1720000Y+2746500D01*
X-1783500Y+2810000D02*
X-1656500Y+2810000D01*
X+1720000Y+1313500D02*
X+1720000Y+1186500D01*
X+1656500Y+1250000D02*
X+1783500Y+1250000D01*
X+270000Y+2463500D02*
X+270000Y+2336500D01*
X+206500Y+2400000D02*
X+333500Y+2400000D01*
X+1440000Y+2963500D02*
X+1440000Y+2836500D01*
X+1376500Y+2900000D02*
X+1503500Y+2900000D01*
X-960000Y+2563500D02*
X-960000Y+2436500D01*
X-1023500Y+2500000D02*
X-896500Y+2500000D01*
X-714901Y-1315099D02*
X-625099Y-1404901D01*
X-714901Y-1404901D02*
X-625099Y-1315099D01*
X-968901Y-1315099D02*
X-879099Y-1404901D01*
X-968901Y-1404901D02*
X-879099Y-1315099D01*
X-222500Y-2540000D02*
X-222717Y-2534753D01*
X-224482Y-2524258D01*
X-228174Y-2513763D01*
X-234202Y-2503268D01*
X-243424Y-2492888D01*
X-253919Y-2485200D01*
X-264414Y-2480282D01*
X-274909Y-2477476D01*
X-285404Y-2476503D01*
X-286000Y-2476500D01*
X-349500Y-2540000D02*
X-349283Y-2534753D01*
X-347518Y-2524258D01*
X-343826Y-2513763D01*
X-337798Y-2503268D01*
X-328576Y-2492888D01*
X-318081Y-2485200D01*
X-307586Y-2480282D01*
X-297091Y-2477476D01*
X-286596Y-2476503D01*
X-286000Y-2476500D01*
X-349500Y-2540000D02*
X-349283Y-2545247D01*
X-347518Y-2555742D01*
X-343826Y-2566237D01*
X-337798Y-2576732D01*
X-328576Y-2587112D01*
X-318081Y-2594800D01*
X-307586Y-2599718D01*
X-297091Y-2602524D01*
X-286596Y-2603497D01*
X-286000Y-2603500D01*
X-222500Y-2540000D02*
X-222717Y-2545247D01*
X-224482Y-2555742D01*
X-228174Y-2566237D01*
X-234202Y-2576732D01*
X-243424Y-2587112D01*
X-253919Y-2594800D01*
X-264414Y-2599718D01*
X-274909Y-2602524D01*
X-285404Y-2603497D01*
X-286000Y-2603500D01*
X-286000Y-2476500D02*
X-286000Y-2603500D01*
X-349500Y-2540000D02*
X-222500Y-2540000D01*
X+793500Y-2540000D02*
X+793283Y-2534753D01*
X+791518Y-2524258D01*
X+787826Y-2513763D01*
X+781798Y-2503268D01*
X+772576Y-2492888D01*
X+762081Y-2485200D01*
X+751586Y-2480282D01*
X+741091Y-2477476D01*
X+730596Y-2476503D01*
X+730000Y-2476500D01*
X+666500Y-2540000D02*
X+666717Y-2534753D01*
X+668482Y-2524258D01*
X+672174Y-2513763D01*
X+678202Y-2503268D01*
X+687424Y-2492888D01*
X+697919Y-2485200D01*
X+708414Y-2480282D01*
X+718909Y-2477476D01*
X+729404Y-2476503D01*
X+730000Y-2476500D01*
X+666500Y-2540000D02*
X+666717Y-2545247D01*
X+668482Y-2555742D01*
X+672174Y-2566237D01*
X+678202Y-2576732D01*
X+687424Y-2587112D01*
X+697919Y-2594800D01*
X+708414Y-2599718D01*
X+718909Y-2602524D01*
X+729404Y-2603497D01*
X+730000Y-2603500D01*
X+793500Y-2540000D02*
X+793283Y-2545247D01*
X+791518Y-2555742D01*
X+787826Y-2566237D01*
X+781798Y-2576732D01*
X+772576Y-2587112D01*
X+762081Y-2594800D01*
X+751586Y-2599718D01*
X+741091Y-2602524D01*
X+730596Y-2603497D01*
X+730000Y-2603500D01*
X+730000Y-2476500D02*
X+730000Y-2603500D01*
X+666500Y-2540000D02*
X+793500Y-2540000D01*
X-2146500Y+1210000D02*
X-2146717Y+1215247D01*
X-2148482Y+1225742D01*
X-2152174Y+1236237D01*
X-2158202Y+1246732D01*
X-2167424Y+1257112D01*
X-2177919Y+1264800D01*
X-2188414Y+1269718D01*
X-2198909Y+1272524D01*
X-2209404Y+1273497D01*
X-2210000Y+1273500D01*
X-2273500Y+1210000D02*
X-2273283Y+1215247D01*
X-2271518Y+1225742D01*
X-2267826Y+1236237D01*
X-2261798Y+1246732D01*
X-2252576Y+1257112D01*
X-2242081Y+1264800D01*
X-2231586Y+1269718D01*
X-2221091Y+1272524D01*
X-2210596Y+1273497D01*
X-2210000Y+1273500D01*
X-2273500Y+1210000D02*
X-2273283Y+1204753D01*
X-2271518Y+1194258D01*
X-2267826Y+1183763D01*
X-2261798Y+1173268D01*
X-2252576Y+1162888D01*
X-2242081Y+1155200D01*
X-2231586Y+1150282D01*
X-2221091Y+1147476D01*
X-2210596Y+1146503D01*
X-2210000Y+1146500D01*
X-2146500Y+1210000D02*
X-2146717Y+1204753D01*
X-2148482Y+1194258D01*
X-2152174Y+1183763D01*
X-2158202Y+1173268D01*
X-2167424Y+1162888D01*
X-2177919Y+1155200D01*
X-2188414Y+1150282D01*
X-2198909Y+1147476D01*
X-2209404Y+1146503D01*
X-2210000Y+1146500D01*
X-2254901Y+1254901D02*
X-2165099Y+1165099D01*
X-2254901Y+1165099D02*
X-2165099Y+1254901D01*
X-1146500Y+1210000D02*
X-1146717Y+1215247D01*
X-1148482Y+1225742D01*
X-1152174Y+1236237D01*
X-1158202Y+1246732D01*
X-1167424Y+1257112D01*
X-1177919Y+1264800D01*
X-1188414Y+1269718D01*
X-1198909Y+1272524D01*
X-1209404Y+1273497D01*
X-1210000Y+1273500D01*
X-1273500Y+1210000D02*
X-1273283Y+1215247D01*
X-1271518Y+1225742D01*
X-1267826Y+1236237D01*
X-1261798Y+1246732D01*
X-1252576Y+1257112D01*
X-1242081Y+1264800D01*
X-1231586Y+1269718D01*
X-1221091Y+1272524D01*
X-1210596Y+1273497D01*
X-1210000Y+1273500D01*
X-1273500Y+1210000D02*
X-1273283Y+1204753D01*
X-1271518Y+1194258D01*
X-1267826Y+1183763D01*
X-1261798Y+1173268D01*
X-1252576Y+1162888D01*
X-1242081Y+1155200D01*
X-1231586Y+1150282D01*
X-1221091Y+1147476D01*
X-1210596Y+1146503D01*
X-1210000Y+1146500D01*
X-1146500Y+1210000D02*
X-1146717Y+1204753D01*
X-1148482Y+1194258D01*
X-1152174Y+1183763D01*
X-1158202Y+1173268D01*
X-1167424Y+1162888D01*
X-1177919Y+1155200D01*
X-1188414Y+1150282D01*
X-1198909Y+1147476D01*
X-1209404Y+1146503D01*
X-1210000Y+1146500D01*
X-1254901Y+1254901D02*
X-1165099Y+1165099D01*
X-1254901Y+1165099D02*
X-1165099Y+1254901D01*
X+1263500Y+810000D02*
X+1263283Y+815247D01*
X+1261518Y+825742D01*
X+1257826Y+836237D01*
X+1251798Y+846732D01*
X+1242576Y+857112D01*
X+1232081Y+864800D01*
X+1221586Y+869718D01*
X+1211091Y+872524D01*
X+1200596Y+873497D01*
X+1200000Y+873500D01*
X+1136500Y+810000D02*
X+1136717Y+815247D01*
X+1138482Y+825742D01*
X+1142174Y+836237D01*
X+1148202Y+846732D01*
X+1157424Y+857112D01*
X+1167919Y+864800D01*
X+1178414Y+869718D01*
X+1188909Y+872524D01*
X+1199404Y+873497D01*
X+1200000Y+873500D01*
X+1136500Y+810000D02*
X+1136717Y+804753D01*
X+1138482Y+794258D01*
X+1142174Y+783763D01*
X+1148202Y+773268D01*
X+1157424Y+762888D01*
X+1167919Y+755200D01*
X+1178414Y+750282D01*
X+1188909Y+747476D01*
X+1199404Y+746503D01*
X+1200000Y+746500D01*
X+1263500Y+810000D02*
X+1263283Y+804753D01*
X+1261518Y+794258D01*
X+1257826Y+783763D01*
X+1251798Y+773268D01*
X+1242576Y+762888D01*
X+1232081Y+755200D01*
X+1221586Y+750282D01*
X+1211091Y+747476D01*
X+1200596Y+746503D01*
X+1200000Y+746500D01*
X+1155099Y+854901D02*
X+1244901Y+765099D01*
X+1155099Y+765099D02*
X+1244901Y+854901D01*
X-686500Y+2740000D02*
X-686717Y+2745247D01*
X-688482Y+2755742D01*
X-692174Y+2766237D01*
X-698202Y+2776732D01*
X-707424Y+2787112D01*
X-717919Y+2794800D01*
X-728414Y+2799718D01*
X-738909Y+2802524D01*
X-749404Y+2803497D01*
X-750000Y+2803500D01*
X-813500Y+2740000D02*
X-813283Y+2745247D01*
X-811518Y+2755742D01*
X-807826Y+2766237D01*
X-801798Y+2776732D01*
X-792576Y+2787112D01*
X-782081Y+2794800D01*
X-771586Y+2799718D01*
X-761091Y+2802524D01*
X-750596Y+2803497D01*
X-750000Y+2803500D01*
X-813500Y+2740000D02*
X-813283Y+2734753D01*
X-811518Y+2724258D01*
X-807826Y+2713763D01*
X-801798Y+2703268D01*
X-792576Y+2692888D01*
X-782081Y+2685200D01*
X-771586Y+2680282D01*
X-761091Y+2677476D01*
X-750596Y+2676503D01*
X-750000Y+2676500D01*
X-686500Y+2740000D02*
X-686717Y+2734753D01*
X-688482Y+2724258D01*
X-692174Y+2713763D01*
X-698202Y+2703268D01*
X-707424Y+2692888D01*
X-717919Y+2685200D01*
X-728414Y+2680282D01*
X-738909Y+2677476D01*
X-749404Y+2676503D01*
X-750000Y+2676500D01*
X-750000Y+2803500D02*
X-750000Y+2676500D01*
X-813500Y+2740000D02*
X-686500Y+2740000D01*
X-432500Y+2740000D02*
X-432717Y+2745247D01*
X-434482Y+2755742D01*
X-438174Y+2766237D01*
X-444202Y+2776732D01*
X-453424Y+2787112D01*
X-463919Y+2794800D01*
X-474414Y+2799718D01*
X-484909Y+2802524D01*
X-495404Y+2803497D01*
X-496000Y+2803500D01*
X-559500Y+2740000D02*
X-559283Y+2745247D01*
X-557518Y+2755742D01*
X-553826Y+2766237D01*
X-547798Y+2776732D01*
X-538576Y+2787112D01*
X-528081Y+2794800D01*
X-517586Y+2799718D01*
X-507091Y+2802524D01*
X-496596Y+2803497D01*
X-496000Y+2803500D01*
X-559500Y+2740000D02*
X-559283Y+2734753D01*
X-557518Y+2724258D01*
X-553826Y+2713763D01*
X-547798Y+2703268D01*
X-538576Y+2692888D01*
X-528081Y+2685200D01*
X-517586Y+2680282D01*
X-507091Y+2677476D01*
X-496596Y+2676503D01*
X-496000Y+2676500D01*
X-432500Y+2740000D02*
X-432717Y+2734753D01*
X-434482Y+2724258D01*
X-438174Y+2713763D01*
X-444202Y+2703268D01*
X-453424Y+2692888D01*
X-463919Y+2685200D01*
X-474414Y+2680282D01*
X-484909Y+2677476D01*
X-495404Y+2676503D01*
X-496000Y+2676500D01*
X-496000Y+2803500D02*
X-496000Y+2676500D01*
X-559500Y+2740000D02*
X-432500Y+2740000D01*
X-178500Y+2740000D02*
X-178717Y+2745247D01*
X-180482Y+2755742D01*
X-184174Y+2766237D01*
X-190202Y+2776732D01*
X-199424Y+2787112D01*
X-209919Y+2794800D01*
X-220414Y+2799718D01*
X-230909Y+2802524D01*
X-241404Y+2803497D01*
X-242000Y+2803500D01*
X-305500Y+2740000D02*
X-305283Y+2745247D01*
X-303518Y+2755742D01*
X-299826Y+2766237D01*
X-293798Y+2776732D01*
X-284576Y+2787112D01*
X-274081Y+2794800D01*
X-263586Y+2799718D01*
X-253091Y+2802524D01*
X-242596Y+2803497D01*
X-242000Y+2803500D01*
X-305500Y+2740000D02*
X-305283Y+2734753D01*
X-303518Y+2724258D01*
X-299826Y+2713763D01*
X-293798Y+2703268D01*
X-284576Y+2692888D01*
X-274081Y+2685200D01*
X-263586Y+2680282D01*
X-253091Y+2677476D01*
X-242596Y+2676503D01*
X-242000Y+2676500D01*
X-178500Y+2740000D02*
X-178717Y+2734753D01*
X-180482Y+2724258D01*
X-184174Y+2713763D01*
X-190202Y+2703268D01*
X-199424Y+2692888D01*
X-209919Y+2685200D01*
X-220414Y+2680282D01*
X-230909Y+2677476D01*
X-241404Y+2676503D01*
X-242000Y+2676500D01*
X-242000Y+2803500D02*
X-242000Y+2676500D01*
X-305500Y+2740000D02*
X-178500Y+2740000D01*
X+75500Y+2740000D02*
X+75283Y+2745247D01*
X+73518Y+2755742D01*
X+69826Y+2766237D01*
X+63798Y+2776732D01*
X+54576Y+2787112D01*
X+44081Y+2794800D01*
X+33586Y+2799718D01*
X+23091Y+2802524D01*
X+12596Y+2803497D01*
X+12000Y+2803500D01*
X-51500Y+2740000D02*
X-51283Y+2745247D01*
X-49518Y+2755742D01*
X-45826Y+2766237D01*
X-39798Y+2776732D01*
X-30576Y+2787112D01*
X-20081Y+2794800D01*
X-9586Y+2799718D01*
X+909Y+2802524D01*
X+11404Y+2803497D01*
X+12000Y+2803500D01*
X-51500Y+2740000D02*
X-51283Y+2734753D01*
X-49518Y+2724258D01*
X-45826Y+2713763D01*
X-39798Y+2703268D01*
X-30576Y+2692888D01*
X-20081Y+2685200D01*
X-9586Y+2680282D01*
X+909Y+2677476D01*
X+11404Y+2676503D01*
X+12000Y+2676500D01*
X+75500Y+2740000D02*
X+75283Y+2734753D01*
X+73518Y+2724258D01*
X+69826Y+2713763D01*
X+63798Y+2703268D01*
X+54576Y+2692888D01*
X+44081Y+2685200D01*
X+33586Y+2680282D01*
X+23091Y+2677476D01*
X+12596Y+2676503D01*
X+12000Y+2676500D01*
X+12000Y+2803500D02*
X+12000Y+2676500D01*
X-51500Y+2740000D02*
X+75500Y+2740000D01*
X+329500Y+2740000D02*
X+329283Y+2745247D01*
X+327518Y+2755742D01*
X+323826Y+2766237D01*
X+317798Y+2776732D01*
X+308576Y+2787112D01*
X+298081Y+2794800D01*
X+287586Y+2799718D01*
X+277091Y+2802524D01*
X+266596Y+2803497D01*
X+266000Y+2803500D01*
X+202500Y+2740000D02*
X+202717Y+2745247D01*
X+204482Y+2755742D01*
X+208174Y+2766237D01*
X+214202Y+2776732D01*
X+223424Y+2787112D01*
X+233919Y+2794800D01*
X+244414Y+2799718D01*
X+254909Y+2802524D01*
X+265404Y+2803497D01*
X+266000Y+2803500D01*
X+202500Y+2740000D02*
X+202717Y+2734753D01*
X+204482Y+2724258D01*
X+208174Y+2713763D01*
X+214202Y+2703268D01*
X+223424Y+2692888D01*
X+233919Y+2685200D01*
X+244414Y+2680282D01*
X+254909Y+2677476D01*
X+265404Y+2676503D01*
X+266000Y+2676500D01*
X+329500Y+2740000D02*
X+329283Y+2734753D01*
X+327518Y+2724258D01*
X+323826Y+2713763D01*
X+317798Y+2703268D01*
X+308576Y+2692888D01*
X+298081Y+2685200D01*
X+287586Y+2680282D01*
X+277091Y+2677476D01*
X+266596Y+2676503D01*
X+266000Y+2676500D01*
X+266000Y+2803500D02*
X+266000Y+2676500D01*
X+202500Y+2740000D02*
X+329500Y+2740000D01*
X-2411599Y+2560708D02*
X-2411816Y+2565955D01*
X-2413581Y+2576450D01*
X-2417273Y+2586945D01*
X-2423301Y+2597440D01*
X-2432523Y+2607820D01*
X-2443018Y+2615508D01*
X-2453513Y+2620426D01*
X-2464008Y+2623232D01*
X-2474503Y+2624205D01*
X-2475099Y+2624208D01*
X-2538599Y+2560708D02*
X-2538382Y+2565955D01*
X-2536617Y+2576450D01*
X-2532925Y+2586945D01*
X-2526897Y+2597440D01*
X-2517675Y+2607820D01*
X-2507180Y+2615508D01*
X-2496685Y+2620426D01*
X-2486190Y+2623232D01*
X-2475695Y+2624205D01*
X-2475099Y+2624208D01*
X-2538599Y+2560708D02*
X-2538382Y+2555461D01*
X-2536617Y+2544966D01*
X-2532925Y+2534471D01*
X-2526897Y+2523976D01*
X-2517675Y+2513596D01*
X-2507180Y+2505908D01*
X-2496685Y+2500990D01*
X-2486190Y+2498184D01*
X-2475695Y+2497211D01*
X-2475099Y+2497208D01*
X-2411599Y+2560708D02*
X-2411816Y+2555461D01*
X-2413581Y+2544966D01*
X-2417273Y+2534471D01*
X-2423301Y+2523976D01*
X-2432523Y+2513596D01*
X-2443018Y+2505908D01*
X-2453513Y+2500990D01*
X-2464008Y+2498184D01*
X-2474503Y+2497211D01*
X-2475099Y+2497208D01*
X-2475099Y+2624208D02*
X-2475099Y+2497208D01*
X-2538599Y+2560708D02*
X-2411599Y+2560708D01*
X-2411599Y+2814708D02*
X-2411816Y+2819955D01*
X-2413581Y+2830450D01*
X-2417273Y+2840945D01*
X-2423301Y+2851440D01*
X-2432523Y+2861820D01*
X-2443018Y+2869508D01*
X-2453513Y+2874426D01*
X-2464008Y+2877232D01*
X-2474503Y+2878205D01*
X-2475099Y+2878208D01*
X-2538599Y+2814708D02*
X-2538382Y+2819955D01*
X-2536617Y+2830450D01*
X-2532925Y+2840945D01*
X-2526897Y+2851440D01*
X-2517675Y+2861820D01*
X-2507180Y+2869508D01*
X-2496685Y+2874426D01*
X-2486190Y+2877232D01*
X-2475695Y+2878205D01*
X-2475099Y+2878208D01*
X-2538599Y+2814708D02*
X-2538382Y+2809461D01*
X-2536617Y+2798966D01*
X-2532925Y+2788471D01*
X-2526897Y+2777976D01*
X-2517675Y+2767596D01*
X-2507180Y+2759908D01*
X-2496685Y+2754990D01*
X-2486190Y+2752184D01*
X-2475695Y+2751211D01*
X-2475099Y+2751208D01*
X-2411599Y+2814708D02*
X-2411816Y+2809461D01*
X-2413581Y+2798966D01*
X-2417273Y+2788471D01*
X-2423301Y+2777976D01*
X-2432523Y+2767596D01*
X-2443018Y+2759908D01*
X-2453513Y+2754990D01*
X-2464008Y+2752184D01*
X-2474503Y+2751211D01*
X-2475099Y+2751208D01*
X-2475099Y+2878208D02*
X-2475099Y+2751208D01*
X-2538599Y+2814708D02*
X-2411599Y+2814708D01*
X+2510000Y-2241500D02*
X+2510000Y-2368500D01*
X+2446500Y-2305000D02*
X+2573500Y-2305000D01*
X+2465099Y-2260099D02*
X+2554901Y-2349901D01*
X+2465099Y-2349901D02*
X+2554901Y-2260099D01*
X+2510000Y-1221500D02*
X+2510000Y-1348500D01*
X+2446500Y-1285000D02*
X+2573500Y-1285000D01*
X+2465099Y-1240099D02*
X+2554901Y-1329901D01*
X+2465099Y-1329901D02*
X+2554901Y-1240099D01*
X+1510000Y-1221500D02*
X+1510000Y-1348500D01*
X+1446500Y-1285000D02*
X+1573500Y-1285000D01*
X+1465099Y-1240099D02*
X+1554901Y-1329901D01*
X+1465099Y-1329901D02*
X+1554901Y-1240099D01*
X+1510000Y-2241500D02*
X+1510000Y-2368500D01*
X+1446500Y-2305000D02*
X+1573500Y-2305000D01*
X+1465099Y-2260099D02*
X+1554901Y-2349901D01*
X+1465099Y-2349901D02*
X+1554901Y-2260099D01*
X+2010000Y-2491500D02*
X+2010000Y-2618500D01*
X+1946500Y-2555000D02*
X+2073500Y-2555000D01*
X+1965099Y-2510099D02*
X+2054901Y-2599901D01*
X+1965099Y-2599901D02*
X+2054901Y-2510099D01*
X+2083500Y-2870000D02*
X+2083283Y-2864753D01*
X+2081518Y-2854258D01*
X+2077826Y-2843763D01*
X+2071798Y-2833268D01*
X+2062576Y-2822888D01*
X+2052081Y-2815200D01*
X+2041586Y-2810282D01*
X+2031091Y-2807476D01*
X+2020596Y-2806503D01*
X+2020000Y-2806500D01*
X+1956500Y-2870000D02*
X+1956717Y-2864753D01*
X+1958482Y-2854258D01*
X+1962174Y-2843763D01*
X+1968202Y-2833268D01*
X+1977424Y-2822888D01*
X+1987919Y-2815200D01*
X+1998414Y-2810282D01*
X+2008909Y-2807476D01*
X+2019404Y-2806503D01*
X+2020000Y-2806500D01*
X+1956500Y-2870000D02*
X+1956717Y-2875247D01*
X+1958482Y-2885742D01*
X+1962174Y-2896237D01*
X+1968202Y-2906732D01*
X+1977424Y-2917112D01*
X+1987919Y-2924800D01*
X+1998414Y-2929718D01*
X+2008909Y-2932524D01*
X+2019404Y-2933497D01*
X+2020000Y-2933500D01*
X+2083500Y-2870000D02*
X+2083283Y-2875247D01*
X+2081518Y-2885742D01*
X+2077826Y-2896237D01*
X+2071798Y-2906732D01*
X+2062576Y-2917112D01*
X+2052081Y-2924800D01*
X+2041586Y-2929718D01*
X+2031091Y-2932524D01*
X+2020596Y-2933497D01*
X+2020000Y-2933500D01*
X+1975099Y-2825099D02*
X+2064901Y-2914901D01*
X+1975099Y-2914901D02*
X+2064901Y-2825099D01*
X+2693500Y+620000D02*
X+2693283Y+625247D01*
X+2691518Y+635742D01*
X+2687826Y+646237D01*
X+2681798Y+656732D01*
X+2672576Y+667112D01*
X+2662081Y+674800D01*
X+2651586Y+679718D01*
X+2641091Y+682524D01*
X+2630596Y+683497D01*
X+2630000Y+683500D01*
X+2566500Y+620000D02*
X+2566717Y+625247D01*
X+2568482Y+635742D01*
X+2572174Y+646237D01*
X+2578202Y+656732D01*
X+2587424Y+667112D01*
X+2597919Y+674800D01*
X+2608414Y+679718D01*
X+2618909Y+682524D01*
X+2629404Y+683497D01*
X+2630000Y+683500D01*
X+2566500Y+620000D02*
X+2566717Y+614753D01*
X+2568482Y+604258D01*
X+2572174Y+593763D01*
X+2578202Y+583268D01*
X+2587424Y+572888D01*
X+2597919Y+565200D01*
X+2608414Y+560282D01*
X+2618909Y+557476D01*
X+2629404Y+556503D01*
X+2630000Y+556500D01*
X+2693500Y+620000D02*
X+2693283Y+614753D01*
X+2691518Y+604258D01*
X+2687826Y+593763D01*
X+2681798Y+583268D01*
X+2672576Y+572888D01*
X+2662081Y+565200D01*
X+2651586Y+560282D01*
X+2641091Y+557476D01*
X+2630596Y+556503D01*
X+2630000Y+556500D01*
X+2630000Y+683500D02*
X+2630000Y+556500D01*
X+2566500Y+620000D02*
X+2693500Y+620000D01*
X+2693500Y+366000D02*
X+2693283Y+371247D01*
X+2691518Y+381742D01*
X+2687826Y+392237D01*
X+2681798Y+402732D01*
X+2672576Y+413112D01*
X+2662081Y+420800D01*
X+2651586Y+425718D01*
X+2641091Y+428524D01*
X+2630596Y+429497D01*
X+2630000Y+429500D01*
X+2566500Y+366000D02*
X+2566717Y+371247D01*
X+2568482Y+381742D01*
X+2572174Y+392237D01*
X+2578202Y+402732D01*
X+2587424Y+413112D01*
X+2597919Y+420800D01*
X+2608414Y+425718D01*
X+2618909Y+428524D01*
X+2629404Y+429497D01*
X+2630000Y+429500D01*
X+2566500Y+366000D02*
X+2566717Y+360753D01*
X+2568482Y+350258D01*
X+2572174Y+339763D01*
X+2578202Y+329268D01*
X+2587424Y+318888D01*
X+2597919Y+311200D01*
X+2608414Y+306282D01*
X+2618909Y+303476D01*
X+2629404Y+302503D01*
X+2630000Y+302500D01*
X+2693500Y+366000D02*
X+2693283Y+360753D01*
X+2691518Y+350258D01*
X+2687826Y+339763D01*
X+2681798Y+329268D01*
X+2672576Y+318888D01*
X+2662081Y+311200D01*
X+2651586Y+306282D01*
X+2641091Y+303476D01*
X+2630596Y+302503D01*
X+2630000Y+302500D01*
X+2630000Y+429500D02*
X+2630000Y+302500D01*
X+2566500Y+366000D02*
X+2693500Y+366000D01*
X-536500Y-900000D02*
X-536717Y-894753D01*
X-538482Y-884258D01*
X-542174Y-873763D01*
X-548202Y-863268D01*
X-557424Y-852888D01*
X-567919Y-845200D01*
X-578414Y-840282D01*
X-588909Y-837476D01*
X-599404Y-836503D01*
X-600000Y-836500D01*
X-663500Y-900000D02*
X-663283Y-894753D01*
X-661518Y-884258D01*
X-657826Y-873763D01*
X-651798Y-863268D01*
X-642576Y-852888D01*
X-632081Y-845200D01*
X-621586Y-840282D01*
X-611091Y-837476D01*
X-600596Y-836503D01*
X-600000Y-836500D01*
X-663500Y-900000D02*
X-663283Y-905247D01*
X-661518Y-915742D01*
X-657826Y-926237D01*
X-651798Y-936732D01*
X-642576Y-947112D01*
X-632081Y-954800D01*
X-621586Y-959718D01*
X-611091Y-962524D01*
X-600596Y-963497D01*
X-600000Y-963500D01*
X-536500Y-900000D02*
X-536717Y-905247D01*
X-538482Y-915742D01*
X-542174Y-926237D01*
X-548202Y-936732D01*
X-557424Y-947112D01*
X-567919Y-954800D01*
X-578414Y-959718D01*
X-588909Y-962524D01*
X-599404Y-963497D01*
X-600000Y-963500D01*
X-644901Y-855099D02*
X-555099Y-944901D01*
X-644901Y-944901D02*
X-555099Y-855099D01*
X-2300000Y+3100000D02*
X+2200000Y+3100000D01*
X+3000000Y+1300000D02*
X+3000000Y-2350000D01*
X+2300000Y-3050000D02*
X-2200000Y-3050000D01*
X+2200000Y+3100000D02*
X+2200000Y+1300000D01*
X+3000000Y+1300000D01*
X-2900000Y-2350000D02*
X-2900000Y+2500000D01*
X+2300000Y-3050000D02*
X+2392133Y-3050486D01*
X+2476341Y-3046399D01*
X+2552940Y-3037454D01*
X+2622246Y-3023368D01*
X+2684575Y-3003856D01*
X+2740242Y-2978636D01*
X+2789563Y-2947423D01*
X+2832855Y-2909933D01*
X+2870432Y-2865883D01*
X+2902611Y-2814988D01*
X+2929707Y-2756966D01*
X+2952036Y-2691532D01*
X+2969914Y-2618402D01*
X+2983657Y-2537292D01*
X+2993581Y-2447920D01*
X+3000000Y-2350000D01*
X-2900000Y-2350000D02*
X-2896465Y-2422749D01*
X-2886072Y-2493127D01*
X-2869142Y-2560814D01*
X-2845996Y-2625488D01*
X-2816954Y-2686830D01*
X-2782336Y-2744519D01*
X-2742463Y-2798235D01*
X-2697656Y-2847656D01*
X-2648234Y-2892464D01*
X-2594519Y-2932336D01*
X-2536830Y-2966954D01*
X-2475488Y-2995996D01*
X-2410814Y-3019142D01*
X-2343127Y-3036072D01*
X-2272749Y-3046465D01*
X-2200000Y-3050000D01*
X-2300000Y+3100000D02*
X-2362357Y+3096970D01*
X-2422681Y+3088062D01*
X-2480698Y+3073550D01*
X-2536133Y+3053711D01*
X-2588712Y+3028818D01*
X-2638159Y+2999146D01*
X-2684201Y+2964969D01*
X-2726562Y+2926562D01*
X-2764968Y+2884201D01*
X-2799145Y+2838159D01*
X-2828818Y+2788712D01*
X-2853711Y+2736133D01*
X-2873550Y+2680698D01*
X-2888062Y+2622681D01*
X-2896970Y+2562357D01*
X-2900000Y+2500000D01*
D99*
X-2912700Y-4852600D02*
X-268560Y-4852600D01*
X-268560Y-3366700D01*
X-2912700Y-3366700D01*
X-2912700Y-4852600D01*
D102*
X-2445338Y-3366700D02*
X-2445338Y-4852600D01*
X-1632538Y-3366700D02*
X-1632538Y-4852600D01*
X-799418Y-3366700D02*
X-799418Y-4852600D01*
X-2912700Y-3639750D02*
X-268560Y-3639750D01*
X-2912700Y-3881050D02*
X-268560Y-3881050D01*
X-2912700Y-4122350D02*
X-268560Y-4122350D01*
X-2912700Y-4363650D02*
X-268560Y-4363650D01*
X-2912700Y-4604950D02*
X-268560Y-4604950D01*
D99*
X-2855550Y-3530530D02*
X-2840310Y-3545770D01*
X-2779350Y-3545770D01*
X-2764110Y-3530530D01*
X-2764110Y-3515290D01*
X-2779350Y-3500050D01*
X-2840310Y-3500050D01*
X-2855550Y-3484810D01*
X-2855550Y-3469570D01*
X-2840310Y-3454330D01*
X-2779350Y-3454330D01*
X-2764110Y-3469570D01*
X-2642190Y-3454330D02*
X-2733630Y-3545770D01*
X-2733630Y-3454330D02*
X-2687910Y-3500050D01*
X-2611710Y-3545770D02*
X-2611710Y-3454330D01*
X-2565990Y-3500050D01*
X-2520270Y-3454330D01*
X-2520270Y-3545770D01*
X-2388190Y-3530530D02*
X-2372950Y-3545770D01*
X-2311990Y-3545770D01*
X-2296750Y-3530530D01*
X-2296750Y-3515290D01*
X-2311990Y-3500050D01*
X-2372950Y-3500050D01*
X-2388190Y-3484810D01*
X-2388190Y-3469570D01*
X-2372950Y-3454330D01*
X-2311990Y-3454330D01*
X-2296750Y-3469570D01*
X-2251030Y-3454330D02*
X-2190070Y-3454330D01*
X-2220550Y-3454330D02*
X-2220550Y-3545770D01*
X-2251030Y-3545770D02*
X-2190070Y-3545770D01*
X-2144350Y-3454330D02*
X-2052910Y-3454330D01*
X-2144350Y-3545770D01*
X-2052910Y-3545770D01*
X-1930990Y-3545770D02*
X-2022430Y-3545770D01*
X-2022430Y-3454330D01*
X-1930990Y-3454330D01*
X-2022430Y-3500050D02*
X-1961470Y-3500050D01*
X-1575390Y-3545770D02*
X-1575390Y-3454330D01*
X-1499190Y-3454330D01*
X-1483950Y-3469570D01*
X-1483950Y-3484810D01*
X-1499190Y-3500050D01*
X-1575390Y-3500050D01*
X-1453470Y-3454330D02*
X-1453470Y-3545770D01*
X-1362030Y-3545770D01*
X-1331550Y-3545770D02*
X-1331550Y-3484810D01*
X-1301070Y-3454330D01*
X-1270590Y-3454330D01*
X-1240110Y-3484810D01*
X-1240110Y-3545770D01*
X-1331550Y-3515290D02*
X-1240110Y-3515290D01*
X-1209630Y-3454330D02*
X-1118190Y-3454330D01*
X-1163910Y-3454330D02*
X-1163910Y-3545770D01*
X-996270Y-3545770D02*
X-1087710Y-3545770D01*
X-1087710Y-3454330D01*
X-996270Y-3454330D01*
X-1087710Y-3500050D02*
X-1026750Y-3500050D01*
X-965790Y-3545770D02*
X-965790Y-3454330D01*
X-904830Y-3454330D01*
X-874350Y-3484810D01*
X-874350Y-3515290D01*
X-904830Y-3545770D01*
X-965790Y-3545770D01*
X-742270Y-3484810D02*
X-711790Y-3454330D01*
X-681310Y-3454330D01*
X-650830Y-3484810D01*
X-650830Y-3515290D01*
X-681310Y-3545770D01*
X-711790Y-3545770D01*
X-742270Y-3515290D01*
X-742270Y-3484810D01*
X-681310Y-3515290D02*
X-650830Y-3545770D01*
X-620350Y-3454330D02*
X-528910Y-3454330D01*
X-574630Y-3454330D02*
X-574630Y-3545770D01*
X-406990Y-3454330D02*
X-498430Y-3545770D01*
X-498430Y-3454330D02*
X-452710Y-3500050D01*
D34*
X-2666320Y-3690550D02*
X-2666320Y-3817550D01*
X-2729820Y-3754050D02*
X-2602820Y-3754050D01*
D99*
X-2369140Y-3779450D02*
X-2369140Y-3728650D01*
X-2356440Y-3715950D01*
X-2305640Y-3715950D01*
X-2292940Y-3728650D01*
X-2292940Y-3779450D01*
X-2305640Y-3792150D01*
X-2356440Y-3792150D01*
X-2369140Y-3779450D01*
X-2369140Y-3792150D02*
X-2292940Y-3715950D01*
X-2229440Y-3779450D02*
X-2216740Y-3779450D01*
X-2216740Y-3792150D01*
X-2229440Y-3792150D01*
X-2229440Y-3779450D01*
X-2153240Y-3728650D02*
X-2140540Y-3715950D01*
X-2102440Y-3715950D01*
X-2089740Y-3728650D01*
X-2089740Y-3741350D01*
X-2102440Y-3754050D01*
X-2089740Y-3766750D01*
X-2089740Y-3779450D01*
X-2102440Y-3792150D01*
X-2140540Y-3792150D01*
X-2153240Y-3779450D01*
X-2127840Y-3754050D02*
X-2102440Y-3754050D01*
X-2038940Y-3754050D02*
X-2051640Y-3741350D01*
X-2051640Y-3728650D01*
X-2038940Y-3715950D01*
X-2000840Y-3715950D01*
X-1988140Y-3728650D01*
X-1988140Y-3741350D01*
X-2000840Y-3754050D01*
X-2038940Y-3754050D01*
X-2051640Y-3766750D01*
X-2051640Y-3779450D01*
X-2038940Y-3792150D01*
X-2000840Y-3792150D01*
X-1988140Y-3779450D01*
X-1988140Y-3766750D01*
X-2000840Y-3754050D01*
X-1937340Y-3741350D02*
X-1911940Y-3715950D01*
X-1911940Y-3792150D01*
X-1861140Y-3792150D02*
X-1861140Y-3741350D01*
X-1861140Y-3754050D02*
X-1848440Y-3741350D01*
X-1823040Y-3766750D01*
X-1797640Y-3741350D01*
X-1784940Y-3754050D01*
X-1784940Y-3792150D01*
X-1759540Y-3792150D02*
X-1759540Y-3741350D01*
X-1759540Y-3754050D02*
X-1746840Y-3741350D01*
X-1721440Y-3766750D01*
X-1696040Y-3741350D01*
X-1683340Y-3754050D01*
X-1683340Y-3792150D01*
X-1467440Y-3715950D02*
X-1543640Y-3792150D01*
X-1543640Y-3715950D02*
X-1505540Y-3754050D01*
X-1365840Y-3792150D02*
X-1442040Y-3792150D01*
X-1442040Y-3715950D01*
X-1365840Y-3715950D01*
X-1442040Y-3754050D02*
X-1391240Y-3754050D01*
X-1340440Y-3779450D02*
X-1327740Y-3792150D01*
X-1276940Y-3792150D01*
X-1264240Y-3779450D01*
X-1264240Y-3766750D01*
X-1276940Y-3754050D01*
X-1327740Y-3754050D01*
X-1340440Y-3741350D01*
X-1340440Y-3728650D01*
X-1327740Y-3715950D01*
X-1276940Y-3715950D01*
X-1264240Y-3728650D01*
X-685120Y-3728650D02*
X-672420Y-3715950D01*
X-634320Y-3715950D01*
X-621620Y-3728650D01*
X-621620Y-3741350D01*
X-634320Y-3754050D01*
X-672420Y-3754050D01*
X-685120Y-3766750D01*
X-685120Y-3792150D01*
X-621620Y-3792150D01*
X-520020Y-3715950D02*
X-583520Y-3715950D01*
X-583520Y-3741350D01*
X-532720Y-3741350D01*
X-520020Y-3754050D01*
X-520020Y-3779450D01*
X-532720Y-3792150D01*
X-570820Y-3792150D01*
X-583520Y-3779450D01*
D34*
X-2711221Y-3950449D02*
X-2621419Y-4040251D01*
X-2711221Y-4040251D02*
X-2621419Y-3950449D01*
D99*
X-2369140Y-4020750D02*
X-2369140Y-3969950D01*
X-2356440Y-3957250D01*
X-2305640Y-3957250D01*
X-2292940Y-3969950D01*
X-2292940Y-4020750D01*
X-2305640Y-4033450D01*
X-2356440Y-4033450D01*
X-2369140Y-4020750D01*
X-2369140Y-4033450D02*
X-2292940Y-3957250D01*
X-2229440Y-4020750D02*
X-2216740Y-4020750D01*
X-2216740Y-4033450D01*
X-2229440Y-4033450D01*
X-2229440Y-4020750D01*
X-2153240Y-3957250D02*
X-2089740Y-3957250D01*
X-2089740Y-3969950D01*
X-2153240Y-4033450D01*
X-1988140Y-3969950D02*
X-2000840Y-3957250D01*
X-2038940Y-3957250D01*
X-2051640Y-3969950D01*
X-2051640Y-4020750D01*
X-2038940Y-4033450D01*
X-2000840Y-4033450D01*
X-1988140Y-4020750D01*
X-1988140Y-4008050D01*
X-2000840Y-3995350D01*
X-2051640Y-3995350D01*
X-1950040Y-3969950D02*
X-1937340Y-3957250D01*
X-1899240Y-3957250D01*
X-1886540Y-3969950D01*
X-1886540Y-3982650D01*
X-1899240Y-3995350D01*
X-1937340Y-3995350D01*
X-1950040Y-4008050D01*
X-1950040Y-4033450D01*
X-1886540Y-4033450D01*
X-1861140Y-4033450D02*
X-1861140Y-3982650D01*
X-1861140Y-3995350D02*
X-1848440Y-3982650D01*
X-1823040Y-4008050D01*
X-1797640Y-3982650D01*
X-1784940Y-3995350D01*
X-1784940Y-4033450D01*
X-1759540Y-4033450D02*
X-1759540Y-3982650D01*
X-1759540Y-3995350D02*
X-1746840Y-3982650D01*
X-1721440Y-4008050D01*
X-1696040Y-3982650D01*
X-1683340Y-3995350D01*
X-1683340Y-4033450D01*
X-1467440Y-3957250D02*
X-1543640Y-4033450D01*
X-1543640Y-3957250D02*
X-1505540Y-3995350D01*
X-1365840Y-4033450D02*
X-1442040Y-4033450D01*
X-1442040Y-3957250D01*
X-1365840Y-3957250D01*
X-1442040Y-3995350D02*
X-1391240Y-3995350D01*
X-1340440Y-4020750D02*
X-1327740Y-4033450D01*
X-1276940Y-4033450D01*
X-1264240Y-4020750D01*
X-1264240Y-4008050D01*
X-1276940Y-3995350D01*
X-1327740Y-3995350D01*
X-1340440Y-3982650D01*
X-1340440Y-3969950D01*
X-1327740Y-3957250D01*
X-1276940Y-3957250D01*
X-1264240Y-3969950D01*
X-685120Y-3969950D02*
X-672420Y-3957250D01*
X-634320Y-3957250D01*
X-621620Y-3969950D01*
X-621620Y-3982650D01*
X-634320Y-3995350D01*
X-672420Y-3995350D01*
X-685120Y-4008050D01*
X-685120Y-4033450D01*
X-621620Y-4033450D01*
D34*
X-2666320Y-4173150D02*
X-2666320Y-4300150D01*
X-2729820Y-4236650D02*
X-2602820Y-4236650D01*
X-2711221Y-4191749D02*
X-2621419Y-4281551D01*
X-2711221Y-4281551D02*
X-2621419Y-4191749D01*
D99*
X-2343740Y-4223950D02*
X-2318340Y-4198550D01*
X-2318340Y-4274750D01*
X-2229440Y-4262050D02*
X-2216740Y-4262050D01*
X-2216740Y-4274750D01*
X-2229440Y-4274750D01*
X-2229440Y-4262050D01*
X-2089740Y-4249350D02*
X-2165940Y-4249350D01*
X-2115140Y-4198550D01*
X-2115140Y-4274750D01*
X-2064340Y-4274750D02*
X-2064340Y-4223950D01*
X-2064340Y-4236650D02*
X-2051640Y-4223950D01*
X-2026240Y-4249350D01*
X-2000840Y-4223950D01*
X-1988140Y-4236650D01*
X-1988140Y-4274750D01*
X-1962740Y-4274750D02*
X-1962740Y-4223950D01*
X-1962740Y-4236650D02*
X-1950040Y-4223950D01*
X-1924640Y-4249350D01*
X-1899240Y-4223950D01*
X-1886540Y-4236650D01*
X-1886540Y-4274750D01*
X-1467440Y-4198550D02*
X-1543640Y-4274750D01*
X-1543640Y-4198550D02*
X-1505540Y-4236650D01*
X-1365840Y-4274750D02*
X-1442040Y-4274750D01*
X-1442040Y-4198550D01*
X-1365840Y-4198550D01*
X-1442040Y-4236650D02*
X-1391240Y-4236650D01*
X-1340440Y-4262050D02*
X-1327740Y-4274750D01*
X-1276940Y-4274750D01*
X-1264240Y-4262050D01*
X-1264240Y-4249350D01*
X-1276940Y-4236650D01*
X-1327740Y-4236650D01*
X-1340440Y-4223950D01*
X-1340440Y-4211250D01*
X-1327740Y-4198550D01*
X-1276940Y-4198550D01*
X-1264240Y-4211250D01*
X-621620Y-4198550D02*
X-685120Y-4198550D01*
X-685120Y-4223950D01*
X-634320Y-4223950D01*
X-621620Y-4236650D01*
X-621620Y-4262050D01*
X-634320Y-4274750D01*
X-672420Y-4274750D01*
X-685120Y-4262050D01*
D34*
X-2602820Y-4477950D02*
X-2603037Y-4472703D01*
X-2604802Y-4462208D01*
X-2608494Y-4451713D01*
X-2614522Y-4441218D01*
X-2623744Y-4430838D01*
X-2634239Y-4423150D01*
X-2644734Y-4418232D01*
X-2655229Y-4415426D01*
X-2665724Y-4414453D01*
X-2666320Y-4414450D01*
X-2729820Y-4477950D02*
X-2729603Y-4472703D01*
X-2727838Y-4462208D01*
X-2724146Y-4451713D01*
X-2718118Y-4441218D01*
X-2708896Y-4430838D01*
X-2698401Y-4423150D01*
X-2687906Y-4418232D01*
X-2677411Y-4415426D01*
X-2666916Y-4414453D01*
X-2666320Y-4414450D01*
X-2729820Y-4477950D02*
X-2729603Y-4483197D01*
X-2727838Y-4493692D01*
X-2724146Y-4504187D01*
X-2718118Y-4514682D01*
X-2708896Y-4525062D01*
X-2698401Y-4532750D01*
X-2687906Y-4537668D01*
X-2677411Y-4540474D01*
X-2666916Y-4541447D01*
X-2666320Y-4541450D01*
X-2602820Y-4477950D02*
X-2603037Y-4483197D01*
X-2604802Y-4493692D01*
X-2608494Y-4504187D01*
X-2614522Y-4514682D01*
X-2623744Y-4525062D01*
X-2634239Y-4532750D01*
X-2644734Y-4537668D01*
X-2655229Y-4540474D01*
X-2665724Y-4541447D01*
X-2666320Y-4541450D01*
X-2666320Y-4414450D02*
X-2666320Y-4541450D01*
X-2729820Y-4477950D02*
X-2602820Y-4477950D01*
D99*
X-2343740Y-4465250D02*
X-2318340Y-4439850D01*
X-2318340Y-4516050D01*
X-2229440Y-4503350D02*
X-2216740Y-4503350D01*
X-2216740Y-4516050D01*
X-2229440Y-4516050D01*
X-2229440Y-4503350D01*
X-2165940Y-4503350D02*
X-2165940Y-4452550D01*
X-2153240Y-4439850D01*
X-2102440Y-4439850D01*
X-2089740Y-4452550D01*
X-2089740Y-4503350D01*
X-2102440Y-4516050D01*
X-2153240Y-4516050D01*
X-2165940Y-4503350D01*
X-2165940Y-4516050D02*
X-2089740Y-4439850D01*
X-2038940Y-4465250D02*
X-2013540Y-4439850D01*
X-2013540Y-4516050D01*
X-1886540Y-4452550D02*
X-1899240Y-4439850D01*
X-1937340Y-4439850D01*
X-1950040Y-4452550D01*
X-1950040Y-4503350D01*
X-1937340Y-4516050D01*
X-1899240Y-4516050D01*
X-1886540Y-4503350D01*
X-1886540Y-4490650D01*
X-1899240Y-4477950D01*
X-1950040Y-4477950D01*
X-1861140Y-4516050D02*
X-1861140Y-4465250D01*
X-1861140Y-4477950D02*
X-1848440Y-4465250D01*
X-1823040Y-4490650D01*
X-1797640Y-4465250D01*
X-1784940Y-4477950D01*
X-1784940Y-4516050D01*
X-1759540Y-4516050D02*
X-1759540Y-4465250D01*
X-1759540Y-4477950D02*
X-1746840Y-4465250D01*
X-1721440Y-4490650D01*
X-1696040Y-4465250D01*
X-1683340Y-4477950D01*
X-1683340Y-4516050D01*
X-1467440Y-4439850D02*
X-1543640Y-4516050D01*
X-1543640Y-4439850D02*
X-1505540Y-4477950D01*
X-1365840Y-4516050D02*
X-1442040Y-4516050D01*
X-1442040Y-4439850D01*
X-1365840Y-4439850D01*
X-1442040Y-4477950D02*
X-1391240Y-4477950D01*
X-1340440Y-4503350D02*
X-1327740Y-4516050D01*
X-1276940Y-4516050D01*
X-1264240Y-4503350D01*
X-1264240Y-4490650D01*
X-1276940Y-4477950D01*
X-1327740Y-4477950D01*
X-1340440Y-4465250D01*
X-1340440Y-4452550D01*
X-1327740Y-4439850D01*
X-1276940Y-4439850D01*
X-1264240Y-4452550D01*
X-672420Y-4465250D02*
X-647020Y-4439850D01*
X-647020Y-4516050D01*
X-570820Y-4465250D02*
X-545420Y-4439850D01*
X-545420Y-4516050D01*
D34*
X-2602820Y-4719250D02*
X-2603037Y-4714003D01*
X-2604802Y-4703508D01*
X-2608494Y-4693013D01*
X-2614522Y-4682518D01*
X-2623744Y-4672138D01*
X-2634239Y-4664450D01*
X-2644734Y-4659532D01*
X-2655229Y-4656726D01*
X-2665724Y-4655753D01*
X-2666320Y-4655750D01*
X-2729820Y-4719250D02*
X-2729603Y-4714003D01*
X-2727838Y-4703508D01*
X-2724146Y-4693013D01*
X-2718118Y-4682518D01*
X-2708896Y-4672138D01*
X-2698401Y-4664450D01*
X-2687906Y-4659532D01*
X-2677411Y-4656726D01*
X-2666916Y-4655753D01*
X-2666320Y-4655750D01*
X-2729820Y-4719250D02*
X-2729603Y-4724497D01*
X-2727838Y-4734992D01*
X-2724146Y-4745487D01*
X-2718118Y-4755982D01*
X-2708896Y-4766362D01*
X-2698401Y-4774050D01*
X-2687906Y-4778968D01*
X-2677411Y-4781774D01*
X-2666916Y-4782747D01*
X-2666320Y-4782750D01*
X-2602820Y-4719250D02*
X-2603037Y-4724497D01*
X-2604802Y-4734992D01*
X-2608494Y-4745487D01*
X-2614522Y-4755982D01*
X-2623744Y-4766362D01*
X-2634239Y-4774050D01*
X-2644734Y-4778968D01*
X-2655229Y-4781774D01*
X-2665724Y-4782747D01*
X-2666320Y-4782750D01*
X-2711221Y-4674349D02*
X-2621419Y-4764151D01*
X-2711221Y-4764151D02*
X-2621419Y-4674349D01*
D99*
X-2343740Y-4706550D02*
X-2318340Y-4681150D01*
X-2318340Y-4757350D01*
X-2229440Y-4744650D02*
X-2216740Y-4744650D01*
X-2216740Y-4757350D01*
X-2229440Y-4757350D01*
X-2229440Y-4744650D01*
X-2089740Y-4681150D02*
X-2153240Y-4681150D01*
X-2153240Y-4706550D01*
X-2102440Y-4706550D01*
X-2089740Y-4719250D01*
X-2089740Y-4744650D01*
X-2102440Y-4757350D01*
X-2140540Y-4757350D01*
X-2153240Y-4744650D01*
X-2051640Y-4693850D02*
X-2038940Y-4681150D01*
X-2000840Y-4681150D01*
X-1988140Y-4693850D01*
X-1988140Y-4706550D01*
X-2000840Y-4719250D01*
X-2038940Y-4719250D01*
X-2051640Y-4731950D01*
X-2051640Y-4757350D01*
X-1988140Y-4757350D01*
X-1886540Y-4731950D02*
X-1962740Y-4731950D01*
X-1911940Y-4681150D01*
X-1911940Y-4757350D01*
X-1861140Y-4757350D02*
X-1861140Y-4706550D01*
X-1861140Y-4719250D02*
X-1848440Y-4706550D01*
X-1823040Y-4731950D01*
X-1797640Y-4706550D01*
X-1784940Y-4719250D01*
X-1784940Y-4757350D01*
X-1759540Y-4757350D02*
X-1759540Y-4706550D01*
X-1759540Y-4719250D02*
X-1746840Y-4706550D01*
X-1721440Y-4731950D01*
X-1696040Y-4706550D01*
X-1683340Y-4719250D01*
X-1683340Y-4757350D01*
X-1467440Y-4681150D02*
X-1543640Y-4757350D01*
X-1543640Y-4681150D02*
X-1505540Y-4719250D01*
X-1365840Y-4757350D02*
X-1442040Y-4757350D01*
X-1442040Y-4681150D01*
X-1365840Y-4681150D01*
X-1442040Y-4719250D02*
X-1391240Y-4719250D01*
X-1340440Y-4744650D02*
X-1327740Y-4757350D01*
X-1276940Y-4757350D01*
X-1264240Y-4744650D01*
X-1264240Y-4731950D01*
X-1276940Y-4719250D01*
X-1327740Y-4719250D01*
X-1340440Y-4706550D01*
X-1340440Y-4693850D01*
X-1327740Y-4681150D01*
X-1276940Y-4681150D01*
X-1264240Y-4693850D01*
X-621620Y-4681150D02*
X-685120Y-4681150D01*
X-685120Y-4706550D01*
X-634320Y-4706550D01*
X-621620Y-4719250D01*
X-621620Y-4744650D01*
X-634320Y-4757350D01*
X-672420Y-4757350D01*
X-685120Y-4744650D01*
M02*
